<?xml version="1.0" standalone="no"?><!DOCTYPE svg PUBLIC "-//W3C//DTD SVG 1.1//EN" "http://www.w3.org/Graphics/SVG/1.1/DTD/svg11.dtd"><svg class="icon" width="200px" height="200.00px" viewBox="0 0 1024 1024" version="1.1" xmlns="http://www.w3.org/2000/svg"><path fill="#333333" d="M676.43 606.1c51.43-46 84.04-112.63 84.04-186.91V177.03c1.95-9.07 0.02-18.83-6.9-26-49.9-51.76-144.03-83.9-245.63-83.9-95.67 0-183.81 28.19-235.74 75.43-0.02 0.02-0.03 0.06-0.06 0.08-8.2 5.08-13.71 14.08-13.71 24.43V419.2c0 74.83 33.08 141.91 85.18 187.94C217.27 648.1 125.42 759.88 112.6 896.33c-1.46 15.49 3.72 31 14.23 42.55 10.56 11.59 25.59 18.25 41.24 18.25h688.04c15.65 0 30.67-6.66 41.23-18.25 10.52-11.57 15.72-27.1 14.25-42.61C898.68 759.11 803.78 646.1 676.43 606.1z m26.43-423.19V369.4c-49.98-26.61-118.79-41.87-194.06-41.87-73.9 0-142.63 15.27-192.75 41.51V181.15c42.33-35.32 113.21-56.42 191.9-56.42 79.19 0.01 153.57 22.66 194.91 58.18zM316.82 434.6l0.87 1.09c39.26-31.19 112.49-50.56 191.1-50.56 80.18 0 155.07 20.59 193.13 52.53-9.34 98.01-92.06 174.93-192.47 174.93-101.44 0.01-184.73-78.53-192.63-177.99zM170.17 899.52c9.86-96.52 70.34-179.86 154.32-222.05-5.81 18.36-8.99 37.62-8.99 57.31v14.93c-17.44 10.45-29.27 29.35-29.27 51.12 0 32.97 26.81 59.79 59.77 59.79s59.78-26.82 59.78-59.79c0-23.15-13.37-43.04-32.67-52.97v-13.09c0-30.3 10.36-59.29 29.2-82.69 2.92-0.49 5.77-1.17 8.71-1.57 0.22-0.03 0.41-0.12 0.63-0.15 30.07 12.77 63.12 19.84 97.79 19.84 34.59 0 67.57-7.03 97.58-19.74 19.68 23.66 30.42 53.16 30.42 84.31v12.42c-17.7 10.21-29.78 29.15-29.78 51.06v35.35c0 13.26 10.75 24 24 24 13.26 0 24-10.75 24-24v-35.35c0-4.5 2.68-8.35 6.48-10.09 1.35 0.19 2.69 0.41 4.1 0.41 1.62 0 3.18-0.22 4.72-0.48 3.86 1.72 6.58 5.61 6.58 10.15v35.35c0 13.26 10.75 24 24 24 13.26 0 24-10.75 24-24v-35.35c0-22.2-12.41-41.35-30.5-51.45v-12.03c0-22.5-4.1-44.32-11.56-64.85 92.56 38.86 159.93 125.7 170.52 229.58H170.17z m175.84-110.45c6.49 0 11.77 5.27 11.77 11.76s-5.28 11.78-11.77 11.78c-6.48 0-11.76-5.29-11.76-11.78 0-6.49 5.28-11.76 11.76-11.76z"  /><path fill="#333333" d="M467.37 264.86h16.03v16.03c0 15.91 12.9 28.81 28.81 28.81 15.91 0 28.81-12.9 28.81-28.81v-16.03h16.03c15.91 0 28.81-12.9 28.81-28.81 0-15.91-12.9-28.81-28.81-28.81h-16.03v-16.03c0-15.91-12.9-28.81-28.81-28.81-15.91 0-28.81 12.9-28.81 28.81v16.03h-16.03c-15.91 0-28.81 12.9-28.81 28.81 0 15.91 12.9 28.81 28.81 28.81z"  /></svg>